<?xml version="1.0" encoding="UTF-8" standalone="no"?>
<!-- Created with Inkscape (http://www.inkscape.org/) -->

<svg
   width="255.99988mm"
   height="255.99988mm"
   viewBox="0 0 255.99988 255.99988"
   version="1.1"
   id="svg1"
   xml:space="preserve"
   inkscape:version="1.3.2 (091e20ef0f, 2023-11-25)"
   sodipodi:docname="nust_c_logo_dark.svg"
   inkscape:export-filename="nust_c_logo_dark-1024.png"
   inkscape:export-xdpi="101.60005"
   inkscape:export-ydpi="101.60005"
   xmlns:inkscape="http://www.inkscape.org/namespaces/inkscape"
   xmlns:sodipodi="http://sodipodi.sourceforge.net/DTD/sodipodi-0.dtd"
   xmlns="http://www.w3.org/2000/svg"
   xmlns:svg="http://www.w3.org/2000/svg"><sodipodi:namedview
     id="namedview1"
     pagecolor="#ffffff"
     bordercolor="#000000"
     borderopacity="0.25"
     inkscape:showpageshadow="2"
     inkscape:pageopacity="0.0"
     inkscape:pagecheckerboard="0"
     inkscape:deskcolor="#d1d1d1"
     inkscape:document-units="mm"
     inkscape:zoom="0.43919052"
     inkscape:cx="653.47494"
     inkscape:cy="527.1061"
     inkscape:window-width="1360"
     inkscape:window-height="699"
     inkscape:window-x="0"
     inkscape:window-y="0"
     inkscape:window-maximized="1"
     inkscape:current-layer="layer1" /><defs
     id="defs1"><rect
       x="880.75743"
       y="782.57432"
       width="581.55642"
       height="629.4606"
       id="rect4" /></defs><g
     inkscape:label="Camada 1"
     inkscape:groupmode="layer"
     id="layer1"><text
       xml:space="preserve"
       style="font-style:normal;font-variant:normal;font-weight:normal;font-stretch:normal;font-size:118.211px;font-family:Quicksand;-inkscape-font-specification:Quicksand;display:inline;fill:#53616c;fill-opacity:1;stroke:#53616c;stroke-width:15.628;stroke-linecap:square;stroke-linejoin:bevel;stroke-dasharray:none;stroke-opacity:1"
       x="39.918892"
       y="171.03036"
       id="text1"
       sodipodi:insensitive="true"><tspan
         sodipodi:role="line"
         id="tspan1"
         style="font-style:normal;font-variant:normal;font-weight:normal;font-stretch:normal;font-family:'DejaVu Sans';-inkscape-font-specification:'DejaVu Sans';fill:#343a40;fill-opacity:1;stroke:#343a40;stroke-width:15.628;stroke-linecap:butt;stroke-linejoin:miter;stroke-dasharray:none;stroke-opacity:1"
         x="39.918892"
         y="171.03036">NC</tspan></text><path
       style="font-size:118.211px;font-family:'DejaVu Sans';-inkscape-font-specification:'DejaVu Sans';fill:#343a40;stroke:#343a40;stroke-width:15.628"
       d="M 51.520655,84.854085 H 67.220553 L 105.43133,156.94663 V 84.854085 H 116.7445 V 171.03036 H 101.0446 L 62.833817,98.937818 V 171.03036 H 51.520655 Z M 204.47922,91.49191 v 12.29441 q -5.88746,-5.483425 -12.583,-8.196275 -6.63783,-2.71285 -14.14146,-2.71285 -14.77637,0 -22.62632,9.062075 -7.84995,9.00435 -7.84995,26.08954 0,17.02746 7.84995,26.08953 7.84995,9.00436 22.62632,9.00436 7.50363,0 14.14146,-2.71285 6.69554,-2.71285 12.583,-8.19627 v 12.17896 q -6.11834,4.15586 -12.98705,6.23378 -6.81098,2.07793 -14.43005,2.07793 -19.56715,0 -30.82259,-11.94808 -11.25545,-12.00581 -11.25545,-32.72736 0,-20.77928 11.25545,-32.727366 11.25544,-12.005804 30.82259,-12.005804 7.73451,0 14.54549,2.077927 6.86871,2.020208 12.87161,6.118343 z"
       id="text2"
       aria-label="NC" /><path
       id="path2"
       style="display:inline;fill:#343a40;fill-opacity:1;stroke:#343a40;stroke-width:0.272484;stroke-dasharray:none;stroke-opacity:1"
       d="M 127.99994,-1.5527344e-6 A 128,128 0 0 0 -1.5527344e-6,127.99994 128,128 0 0 0 127.99994,255.99988 128,128 0 0 0 255.99988,127.99994 128,128 0 0 0 127.99994,-1.5527344e-6 Z M 127.99994,20.01118 A 107.98898,107.98898 0 0 1 235.9887,127.99994 107.98898,107.98898 0 0 1 127.99994,235.9887 107.98898,107.98898 0 0 1 20.01118,127.99994 107.98898,107.98898 0 0 1 127.99994,20.01118 Z" /></g></svg>
